<?xml version="1.0" encoding="UTF-8" standalone="no"?>
<svg width="601px" height="112px" viewBox="0 0 601 112" version="1.1" xmlns="http://www.w3.org/2000/svg" xmlns:xlink="http://www.w3.org/1999/xlink" xmlns:sketch="http://www.bohemiancoding.com/sketch/ns">
    <title>arrowright</title>
    <description>Created with Sketch (http://www.bohemiancoding.com/sketch)</description>
    <defs>
        <path d="M501.410085,109.722904 L501.410085,67.8684733 C501.410085,67.8684733 563.455708,67.8684737 577.021592,67.8684733 C603.710405,67.8684728 606.352016,38.9447671 583.16485,38.9447671 C513.288376,38.944765 87.5994034,40.3540073 42.4887168,38.9447667 C26.5577029,38.4470878 11.6618725,34.2293655 6.51852706,26.7879707 C1.37518429,19.3465759 2.39185369,0.352346887 2.391847,-5.84235744" id="path-1"></path>
    </defs>
    <g id="Page-1" stroke="none" stroke-width="1" fill="none" fill-rule="evenodd" sketch:type="MSPage">
        <g id="Line">
            <use stroke="#636363" stroke-width="1" stroke-linecap="square" stroke-dasharray="8" fill-rule="evenodd" sketch:type="MSShapeGroup" xlink:href="#path-1"></use>
            <use stroke="none" xlink:href="#path-1"></use>
            <use stroke="none" xlink:href="#path-1"></use>
        </g>
        <path id="Line-decoration-1" d="M501.410085,108.922904 C500.360085,105.142905 499.460085,101.902905 498.410085,98.1229046 C500.510085,98.1229045 502.310085,98.1229044 504.410085,98.1229043 C503.360085,101.902904 502.460085,105.142904 501.410085,108.922904 C501.410085,108.922904 501.410085,108.922904 501.410085,108.922904 Z" stroke="#636363" stroke-linecap="square" stroke-dasharray="8"></path>
    </g>
</svg>