<?xml version="1.0" encoding="UTF-8" standalone="no"?>
<svg width="961px" height="176px" viewBox="0 0 961 176" version="1.1" xmlns="http://www.w3.org/2000/svg" xmlns:xlink="http://www.w3.org/1999/xlink" xmlns:sketch="http://www.bohemiancoding.com/sketch/ns">
    <title>Slice 1</title>
    <description>Created with Sketch (http://www.bohemiancoding.com/sketch)</description>
    <defs></defs>
    <g id="Page-1" stroke="none" stroke-width="1" fill="none" fill-rule="evenodd" sketch:type="MSPage">
        <g id="Homepage_landscape" sketch:type="MSLayerGroup" transform="translate(1.000000, 1.000000)">
            <g id="Page-1" sketch:type="MSShapeGroup">
                <path d="M792.377075,107.969148 C792.377075,107.969148 751.484089,79.0330248 724.927673,79.0330248 C675.596557,79.0330248 603.774899,122 603.774899,122 L366.739886,122 L272.554169,107.969148 L0,122 L0,174 L960,174 L960,122 L792.377075,107.969148 Z" id="Rectangle-1" fill="#FFFFFF"></path>
                <path d="M0,133 C0,133 28.0472494,101.601681 41.656618,91.251916 C53.3506956,82.358707 67.0218831,88.079222 90.4870665,74.068392 C113.952252,60.057563 143.946691,78.979817 162.217916,84.252774 C181.771148,89.895708 194.58881,106.818793 229.366323,116.657024 C264.143835,126.495255 302,123.795809 302,123.795809" id="Hillside1" stroke="#000000" fill="#FFFFFF"></path>
                <path d="M302.447807,123.793644 C302.447807,123.793644 364.079996,120.750144 400.27964,117.266659 C414.783854,115.870921 450.74762,102.752632 466.828323,95.995363 C471.991437,93.825772 499.132143,102.18087 519.301392,105.208428 C544.715242,109.02324 557.56398,117.266659 587.54245,120.608502 C640.720258,126.536485 659.889732,129.359841 659.889732,129.359841" id="Hillside2" stroke="#000000" fill="#FFFFFF"></path>
                <path d="M601.305534,121.160909 L639.525768,102.691549 C639.525768,102.691549 656.729647,98.787382 672.075287,83.909057 C677.956782,78.206667 687.104878,70.680304 693.624847,63.750871 C698.662041,58.397334 698.523303,52.995786 700.625366,52.995786 C702.95832,52.995786 719.455272,61.031527 722.381378,65.215671 C724.702963,68.535389 754.029157,73.247898 757.486588,74.999999 C765.301735,78.960433 792.863663,108.304998 792.863663,108.304998" id="Mountain1" stroke="#000000" fill="#FFFFFF"></path>
                <path d="M959.5,131 C959.5,131 914.725372,-11.8415791 899.01004,0.8841152 C883.294708,13.6098097 873.013288,13.6098098 868.741135,13.6098099 C865.25,13.6098102 851.914506,40.622037 837.171562,58.470173 C808.447235,93.244492 771,131 771,131" id="Mountain2" stroke="#000000" fill="#FFFFFF"></path>
                <path d="M207.077958,107.95426 C207.077958,107.95426 265.739335,81.526429 271.577004,81.526429 C277.414674,81.526429 280.906121,85.876749 283.06099,88.209968 C286.543904,91.981148 289.613958,94.645746 290.989503,96.909142 C302.038707,115.090105 371.141541,119.315257 371.141541,119.315257" id="Line" stroke="#000000" fill="#FFFFFF"></path>
                <g id="Hill-texture" transform="translate(218.000000, 85.000000)" stroke="#B8B8B8" stroke-width="0.5">
                    <path d="M13.8684211,20.8666667 C13.8684211,20.8666667 17.0002317,17.0122346 18.9052128,17.0122346 C21.0353194,17.0122346 23.9420046,20.8666667 23.9420046,20.8666667" id="Line"></path>
                    <path d="M56.8684211,33.8666667 C56.8684211,33.8666667 60.0002317,30.0122346 61.9052128,30.0122346 C64.0353194,30.0122346 66.9420046,33.8666667 66.9420046,33.8666667" id="Line"></path>
                    <path d="M31.8684211,32.8666667 C31.8684211,32.8666667 35.0002317,29.0122346 36.9052128,29.0122346 C39.0353194,29.0122346 41.9420046,32.8666667 41.9420046,32.8666667" id="Line"></path>
                    <path d="M22.8684211,18.8666667 C22.8684211,18.8666667 26.0002317,15.0122346 27.9052128,15.0122346 C30.0353194,15.0122346 32.9420046,18.8666667 32.9420046,18.8666667" id="Line"></path>
                    <path d="M64.8684211,20.8666667 C64.8684211,20.8666667 68.0002317,17.0122346 69.9052128,17.0122346 C72.0353194,17.0122346 74.9420046,20.8666667 74.9420046,20.8666667" id="Line"></path>
                    <path d="M36.8684211,22.8666667 C36.8684211,22.8666667 40.0002317,19.0122346 41.9052128,19.0122346 C44.0353194,19.0122346 46.9420046,22.8666667 46.9420046,22.8666667" id="Line"></path>
                    <path d="M54.8684211,15.8666667 C54.8684211,15.8666667 58.0002317,12.0122346 59.9052128,12.0122346 C62.0353194,12.0122346 64.9420046,15.8666667 64.9420046,15.8666667" id="Line"></path>
                    <path d="M41.8684211,10.8666667 C41.8684211,10.8666667 45.0002317,7.01223459 46.9052128,7.01223459 C49.0353194,7.01223459 51.9420046,10.8666667 51.9420046,10.8666667" id="Line"></path>
                    <path d="M48.8684211,3.86666667 C48.8684211,3.86666667 52.0002317,0.0122345924 53.9052128,0.0122345924 C56.0353194,0.0122345924 58.9420046,3.86666667 58.9420046,3.86666667" id="Line"></path>
                    <path d="M83.8684211,32.8666667 C83.8684211,32.8666667 87.0002317,29.0122346 88.9052128,29.0122346 C91.0353194,29.0122346 93.9420046,32.8666667 93.9420046,32.8666667" id="Line"></path>
                    <path d="M-0.131578947,24.8666667 C-0.131578947,24.8666667 3.00023173,21.0122346 4.9052128,21.0122346 C7.03531945,21.0122346 9.94200456,24.8666667 9.94200456,24.8666667" id="Line"></path>
                    <path d="M20.8684211,29.8666667 C20.8684211,29.8666667 24.0002317,26.0122346 25.9052128,26.0122346 C28.0353194,26.0122346 30.9420046,29.8666667 30.9420046,29.8666667" id="Line"></path>
                    <path d="M39.8684211,29.8666667 C39.8684211,29.8666667 43.0002317,26.0122346 44.9052128,26.0122346 C47.0353194,26.0122346 49.9420046,29.8666667 49.9420046,29.8666667" id="Line"></path>
                    <path d="M60.8684211,26.8666667 C60.8684211,26.8666667 64.0002317,23.0122346 65.9052128,23.0122346 C68.0353194,23.0122346 70.9420046,26.8666667 70.9420046,26.8666667" id="Line"></path>
                    <path d="M74.8684211,30.8666667 C74.8684211,30.8666667 78.0002317,27.0122346 79.9052128,27.0122346 C82.0353194,27.0122346 84.9420046,30.8666667 84.9420046,30.8666667" id="Line"></path>
                    <path d="M36.8684211,14.8666667 C36.8684211,14.8666667 40.0002317,11.0122346 41.9052128,11.0122346 C44.0353194,11.0122346 46.9420046,14.8666667 46.9420046,14.8666667" id="Line"></path>
                    <path d="M92.8684211,30.8666667 C92.8684211,30.8666667 96.0002317,27.0122346 97.9052128,27.0122346 C100.035319,27.0122346 102.942005,30.8666667 102.942005,30.8666667" id="Line"></path>
                    <path d="M106.868421,34.8666667 C106.868421,34.8666667 110.000232,31.0122346 111.905213,31.0122346 C114.035319,31.0122346 116.942005,34.8666667 116.942005,34.8666667" id="Line"></path>
                </g>
                <path d="M294.002167,146.030668 L441,144.0954 C441,144.0954 649.098064,149.319147 703.583069,144.0954 C712.343818,143.255463 710.895935,139.172064 710.895935,138.101036 C710.895935,137.369674 704.263,136.604729 701.927063,131.656745 C699.591125,126.70876 660.866738,130.120058 596.417175,130.120058 C511.709991,130.120059 478.95122,112.537335 441,121 C378.216324,135 176,127.268013 176,135 C176,140.234109 294.002167,146.030668 294.002167,146.030668 L294.002167,146.030668 Z" id="Lake" stroke="#000000" stroke-width="0.5" fill="#C2DFE4"></path>
                <g id="Tree1" transform="translate(78.000000, 107.000000)" stroke="#000000">
                    <path d="M5.5,1.5 L5.5,35.7857143" id="Line"></path>
                    <path d="M0.214285714,4.79166667 L5.78571429,0.208333333" id="Line"></path>
                    <path d="M0.214285714,8.79166667 L5.78571429,4.20833333" id="Line"></path>
                    <path d="M0.214285714,11.7916667 L5.78571429,7.20833333" id="Line"></path>
                    <path d="M0.214285714,15.7916667 L5.78571429,11.2083333" id="Line"></path>
                    <path d="M0.214285714,19.7916667 L5.78571429,15.2083333" id="Line"></path>
                    <path d="M0.214285714,23.7916667 L5.78571429,19.2083333" id="Line"></path>
                    <path d="M0.214285714,27.7916667 L5.78571429,23.2083333" id="Line"></path>
                    <path d="M12,5 L6,1" id="Line"></path>
                    <path d="M12,8 L6,4" id="Line"></path>
                    <path d="M12,11 L6,7" id="Line"></path>
                    <path d="M12,15 L6,11" id="Line"></path>
                    <path d="M12,19 L7.68095445,16.1206363 L6,15" id="Line"></path>
                    <path d="M12,23 L6,19" id="Line"></path>
                    <path d="M12,27 L8.22424523,24.4828302 L6,23" id="Line"></path>
                </g>
                <g id="Tree1" transform="translate(99.000000, 94.000000)" stroke="#000000">
                    <path d="M5.5,1.5 L5.5,35.7857143" id="Line"></path>
                    <path d="M0.214285714,4.79166667 L5.78571429,0.208333333" id="Line"></path>
                    <path d="M0.214285714,8.79166667 L5.78571429,4.20833333" id="Line"></path>
                    <path d="M0.214285714,11.7916667 L5.78571429,7.20833333" id="Line"></path>
                    <path d="M0.214285714,15.7916667 L5.78571429,11.2083333" id="Line"></path>
                    <path d="M0.214285714,19.7916667 L5.78571429,15.2083333" id="Line"></path>
                    <path d="M0.214285714,23.7916667 L5.78571429,19.2083333" id="Line"></path>
                    <path d="M0.214285714,27.7916667 L5.78571429,23.2083333" id="Line"></path>
                    <path d="M12,5 L6,1" id="Line"></path>
                    <path d="M12,8 L6,4" id="Line"></path>
                    <path d="M12,11 L6,7" id="Line"></path>
                    <path d="M12,15 L6,11" id="Line"></path>
                    <path d="M12,19 L7.68095445,16.1206363 L6,15" id="Line"></path>
                    <path d="M12,23 L6,19" id="Line"></path>
                    <path d="M12,27 L8.22424523,24.4828302 L6,23" id="Line"></path>
                </g>
                <g id="Dock" transform="translate(694.000000, 130.000000)">
                    <g id="Back-supports" transform="translate(5.000000, 0.000000)" stroke="#6D5F5F">
                        <path d="M20.75,-0.5 L20.7499998,7.85714286" id="Path"></path>
                        <path d="M-0.25,-0.5 L-0.250000197,7.9" id="Path"></path>
                    </g>
                    <g id="dock-floor" transform="translate(0.000000, 5.000000)" stroke="#92876B">
                        <path d="M4.5,0.25 L25.5,0.25" id="Line" stroke-width="0.5"></path>
                        <path d="M-0.5,4.25 L20.5,4.25" id="Line" stroke-width="0.5"></path>
                        <path d="M2.5,2.25 L22.5,2.25" id="Line" stroke-width="0.5"></path>
                        <path d="M0.5,4.5 L5.5,0.5" id="Line" stroke-width="0.8"></path>
                        <path d="M2.5,4.5 L7.5,0.5" id="Line" stroke-width="0.8"></path>
                        <path d="M4.5,4.5 L9.5,0.5" id="Line" stroke-width="0.8"></path>
                        <path d="M6.5,4.5 L11.5,0.5" id="Line" stroke-width="0.8"></path>
                        <path d="M18.5,4.5 L23.5,0.5" id="Line" stroke-width="0.8"></path>
                        <path d="M20.5,4.5 L25.5,0.5" id="Line" stroke-width="0.8"></path>
                        <path d="M21.5,4.5 L26.5,0.5" id="Line" stroke-width="0.8"></path>
                        <path d="M8.5,4.5 L13.5,0.5" id="Line" stroke-width="0.8"></path>
                        <path d="M10.5,4.5 L15.5,0.5" id="Line" stroke-width="0.8"></path>
                        <path d="M12.5,4.5 L17.5,0.5" id="Line" stroke-width="0.8"></path>
                        <path d="M14.5,4.5 L19.5,0.5" id="Line" stroke-width="0.8"></path>
                        <path d="M16.5,4.5 L21.5,0.5" id="Line" stroke-width="0.8"></path>
                    </g>
                    <path d="M0.5,4.5 L0.5,13.5 M21.5,4.3 L21.5,12.7" id="Front-Supports" stroke="#6D5F5F"></path>
                </g>
                <g id="Group" transform="translate(633.000000, 59.000000)" stroke="#979797" stroke-width="0.3">
                    <path d="M93.7777778,59.8 L94.4841604,56.0971018 L101.777778,57.4" id="Line"></path>
                    <path d="M64.7777778,8.8 L65.4841604,5.09710178 L72.7777778,6.4" id="Line"></path>
                    <path d="M64.7777778,8.8 L65.4841604,5.09710178 L72.7777778,6.4" id="Line"></path>
                    <path d="M77.7777778,12.8 L78.4841604,9.09710178 L85.7777778,10.4" id="Line"></path>
                    <path d="M60.7777778,13.8 L61.4841604,10.0971018 L68.7777778,11.4" id="Line"></path>
                    <path d="M66.7777778,3.8 L67.4841604,0.0971017838 L74.7777778,1.4" id="Line"></path>
                    <path d="M72.7777778,8.8 L73.4841604,5.09710178 L80.7777778,6.4" id="Line"></path>
                    <path d="M68.7777778,12.8 L69.4841604,9.09710178 L76.7777778,10.4" id="Line"></path>
                    <path d="M3.77777778,60.8 L4.48416042,57.0971018 L11.7777778,58.4" id="Line"></path>
                    <path d="M3.77777778,60.8 L4.48416042,57.0971018 L11.7777778,58.4" id="Line"></path>
                    <path d="M16.7777778,64.8 L17.4841604,61.0971018 L24.7777778,62.4" id="Line"></path>
                    <path d="M-0.222222222,65.8 L0.484160423,62.0971018 L7.77777778,63.4" id="Line"></path>
                    <path d="M5.77777778,55.8 L6.48416042,52.0971018 L13.7777778,53.4" id="Line"></path>
                    <path d="M11.7777778,60.8 L12.4841604,57.0971018 L19.7777778,58.4" id="Line"></path>
                    <path d="M7.77777778,64.8 L8.48416042,61.0971018 L15.7777778,62.4" id="Line"></path>
                    <path d="M93.7777778,59.8 L94.4841604,56.0971018 L101.777778,57.4" id="Line"></path>
                    <path d="M106.777778,63.8 L107.48416,60.0971018 L114.777778,61.4" id="Line"></path>
                    <path d="M89.7777778,64.8 L90.4841604,61.0971018 L97.7777778,62.4" id="Line"></path>
                    <path d="M95.7777778,54.8 L96.4841604,51.0971018 L103.777778,52.4" id="Line"></path>
                    <path d="M101.777778,59.8 L102.48416,56.0971018 L109.777778,57.4" id="Line"></path>
                    <path d="M97.7777778,63.8 L98.4841604,60.0971018 L105.777778,61.4" id="Line"></path>
                    <path d="M109.777778,48.8 L110.48416,45.0971018 L117.777778,46.4" id="Line"></path>
                    <path d="M109.777778,48.8 L110.48416,45.0971018 L117.777778,46.4" id="Line"></path>
                    <path d="M122.777778,52.8 L123.48416,49.0971018 L130.777778,50.4" id="Line"></path>
                    <path d="M105.777778,53.8 L106.48416,50.0971018 L113.777778,51.4" id="Line"></path>
                    <path d="M111.777778,43.8 L112.48416,40.0971018 L119.777778,41.4" id="Line"></path>
                    <path d="M117.777778,48.8 L118.48416,45.0971018 L125.777778,46.4" id="Line"></path>
                    <path d="M113.777778,52.8 L114.48416,49.0971018 L121.777778,50.4" id="Line"></path>
                    <path d="M115.777778,63.8 L116.48416,60.0971018 L123.777778,61.4" id="Line"></path>
                    <path d="M115.777778,63.8 L116.48416,60.0971018 L123.777778,61.4" id="Line"></path>
                    <path d="M109.777778,58.8 L110.48416,55.0971018 L117.777778,56.4" id="Line"></path>
                    <path d="M111.777778,68.8 L112.48416,65.0971018 L119.777778,66.4" id="Line"></path>
                    <path d="M117.777778,58.8 L118.48416,55.0971018 L125.777778,56.4" id="Line"></path>
                    <path d="M123.777778,63.8 L124.48416,60.0971018 L131.777778,61.4" id="Line"></path>
                    <path d="M119.777778,67.8 L120.48416,64.0971018 L127.777778,65.4" id="Line"></path>
                    <path d="M60.7777778,43.8 L61.4841604,40.0971018 L68.7777778,41.4" id="Line"></path>
                    <path d="M83.7777778,18.8 L84.4841604,15.0971018 L91.7777778,16.4" id="Line"></path>
                    <path d="M73.7777778,47.8 L74.4841604,44.0971018 L81.7777778,45.4" id="Line"></path>
                    <path d="M56.7777778,48.8 L57.4841604,45.0971018 L64.7777778,46.4" id="Line"></path>
                    <path d="M62.7777778,38.8 L63.4841604,35.0971018 L70.7777778,36.4" id="Line"></path>
                    <path d="M68.7777778,43.8 L69.4841604,40.0971018 L76.7777778,41.4" id="Line"></path>
                    <path d="M64.7777778,47.8 L65.4841604,44.0971018 L72.7777778,45.4" id="Line"></path>
                    <path d="M76.7777778,32.8 L77.4841604,29.0971018 L84.7777778,30.4" id="Line"></path>
                    <path d="M76.7777778,32.8 L77.4841604,29.0971018 L84.7777778,30.4" id="Line"></path>
                    <path d="M89.7777778,36.8 L90.4841604,33.0971018 L97.7777778,34.4" id="Line"></path>
                    <path d="M72.7777778,37.8 L73.4841604,34.0971018 L80.7777778,35.4" id="Line"></path>
                    <path d="M78.7777778,27.8 L79.4841604,24.0971018 L86.7777778,25.4" id="Line"></path>
                    <path d="M84.7777778,32.8 L85.4841604,29.0971018 L92.7777778,30.4" id="Line"></path>
                    <path d="M80.7777778,36.8 L81.4841604,33.0971018 L88.7777778,34.4" id="Line"></path>
                    <path d="M82.7777778,47.8 L83.4841604,44.0971018 L90.7777778,45.4" id="Line"></path>
                    <path d="M82.7777778,47.8 L83.4841604,44.0971018 L90.7777778,45.4" id="Line"></path>
                    <path d="M76.7777778,42.8 L77.4841604,39.0971018 L84.7777778,40.4" id="Line"></path>
                    <path d="M78.7777778,52.8 L79.4841604,49.0971018 L86.7777778,50.4" id="Line"></path>
                    <path d="M84.7777778,42.8 L85.4841604,39.0971018 L92.7777778,40.4" id="Line"></path>
                    <path d="M90.7777778,47.8 L91.4841604,44.0971018 L98.7777778,45.4" id="Line"></path>
                    <path d="M86.7777778,51.8 L87.4841604,48.0971018 L94.7777778,49.4" id="Line"></path>
                    <path d="M22.7777778,48.8 L23.4841604,45.0971018 L30.7777778,46.4" id="Line"></path>
                    <path d="M22.7777778,48.8 L23.4841604,45.0971018 L30.7777778,46.4" id="Line"></path>
                    <path d="M35.7777778,52.8 L36.4841604,49.0971018 L43.7777778,50.4" id="Line"></path>
                    <path d="M18.7777778,53.8 L19.4841604,50.0971018 L26.7777778,51.4" id="Line"></path>
                    <path d="M24.7777778,43.8 L25.4841604,40.0971018 L32.7777778,41.4" id="Line"></path>
                    <path d="M30.7777778,48.8 L31.4841604,45.0971018 L38.7777778,46.4" id="Line"></path>
                    <path d="M26.7777778,52.8 L27.4841604,49.0971018 L34.7777778,50.4" id="Line"></path>
                    <path d="M38.7777778,37.8 L39.4841604,34.0971018 L46.7777778,35.4" id="Line"></path>
                    <path d="M38.7777778,37.8 L39.4841604,34.0971018 L46.7777778,35.4" id="Line"></path>
                    <path d="M51.7777778,41.8 L52.4841604,38.0971018 L59.7777778,39.4" id="Line"></path>
                    <path d="M34.7777778,42.8 L35.4841604,39.0971018 L42.7777778,40.4" id="Line"></path>
                    <path d="M40.7777778,32.8 L41.4841604,29.0971018 L48.7777778,30.4" id="Line"></path>
                    <path d="M46.7777778,37.8 L47.4841604,34.0971018 L54.7777778,35.4" id="Line"></path>
                    <path d="M42.7777778,41.8 L43.4841604,38.0971018 L50.7777778,39.4" id="Line"></path>
                    <path d="M44.7777778,52.8 L45.4841604,49.0971018 L52.7777778,50.4" id="Line"></path>
                    <path d="M44.7777778,52.8 L45.4841604,49.0971018 L52.7777778,50.4" id="Line"></path>
                    <path d="M38.7777778,47.8 L39.4841604,44.0971018 L46.7777778,45.4" id="Line"></path>
                    <path d="M40.7777778,57.8 L41.4841604,54.0971018 L48.7777778,55.4" id="Line"></path>
                    <path d="M46.7777778,47.8 L47.4841604,44.0971018 L54.7777778,45.4" id="Line"></path>
                    <path d="M52.7777778,52.8 L53.4841604,49.0971018 L60.7777778,50.4" id="Line"></path>
                    <path d="M48.7777778,56.8 L49.4841604,53.0971018 L56.7777778,54.4" id="Line"></path>
                </g>
                <g id="Mountain2-texture" transform="translate(846.000000, 19.000000)" fill="#D8D8D8">
                    <path d="M52.5920393,83 C54.9607168,83 65.3798006,80.8696732 66.3037215,74.5623935 C66.6422146,72.251621 72.1638872,71.4431278 72.1638872,68.7366536 C72.1638872,58.6428275 81.558036,54 78.3215557,54 C75.9547234,54 64.6233143,64.3955343 64.6233143,64.3955343 C64.6233143,64.3955343 60.4435557,66.0244246 60.4435557,68.7366536 C60.4435557,78.8304797 49.3555589,83 52.5920393,83 L52.5920393,83 Z" id="Oval-2" transform="translate(65.500000, 68.500000) scale(1, -1) translate(-65.500000, -68.500000) "></path>
                    <path d="M13.6507347,58.5831146 C11.5478558,67.2771205 53.7656794,36 59.35911,36 C68.1956664,36 69,55.882252 69,36 C69,29.8734998 60.5588094,25.6513494 59.3591099,20.6011543 C56.6654397,9.26201714 59.1136674,0 53,0 C44.1634436,0 35.2019385,12.3753721 41.5610482,32 C43.8949205,39.2024813 14.8700044,53.5422443 13.6507347,58.5831146 L13.6507347,58.5831146 Z" id="Oval-4"></path>
                    <path d="M0.592039276,54 C2.96071681,54 13.3798006,50.4739418 14.3037215,40.0343065 C14.6422146,36.2095796 20.1638872,34.871384 20.1638872,30.3917025 C20.1638872,13.68468 29.558036,6 26.3215557,6 C23.9547234,6 12.6233143,23.2064016 12.6233143,23.2064016 C12.6233143,23.2064016 8.44355571,25.9024959 8.44355571,30.3917025 C8.44355571,47.098725 -2.64444106,54 0.592039276,54 L0.592039276,54 Z" id="Oval-2"></path>
                </g>
                <g id="Water-texture" transform="translate(409.000000, 125.000000)" stroke="#FFFFFF" stroke-width="0.5">
                    <path d="M31.25,1.25 L37.75,1.25" id="Line"></path>
                    <path d="M41.25,0.25 L47.75,0.25" id="Line"></path>
                    <path d="M20.25,2.25 L26.75,2.25" id="Line"></path>
                    <path d="M23.25,5.25 L29.75,5.25" id="Line"></path>
                    <path d="M36.25,4.25 L42.75,4.25" id="Line"></path>
                    <path d="M32.25,7.25 L38.75,7.25" id="Line"></path>
                    <path d="M56.25,2.25 L62.75,2.25" id="Line"></path>
                    <path d="M67.25,1.25 L73.75,1.25" id="Line"></path>
                    <path d="M46.25,3.25 L52.75,3.25" id="Line"></path>
                    <path d="M48.25,6.25 L54.75,6.25" id="Line"></path>
                    <path d="M62.25,5.25 L68.75,5.25" id="Line"></path>
                    <path d="M57.25,8.25 L63.75,8.25" id="Line"></path>
                    <path d="M11.25,8.25 L17.75,8.25" id="Line"></path>
                    <path d="M21.25,8.25 L27.75,8.25" id="Line"></path>
                    <path d="M0.25,9.25 L6.75,9.25" id="Line"></path>
                    <path d="M3.25,12.25 L9.75,12.25" id="Line"></path>
                    <path d="M16.25,11.25 L22.75,11.25" id="Line"></path>
                    <path d="M12.25,15.25 L18.75,15.25" id="Line"></path>
                    <path d="M98.25,5.25 L104.75,5.25" id="Line"></path>
                    <path d="M108.25,4.25 L114.75,4.25" id="Line"></path>
                    <path d="M87.25,6.25 L93.75,6.25" id="Line"></path>
                    <path d="M90.25,9.25 L96.75,9.25" id="Line"></path>
                    <path d="M103.25,8.25 L109.75,8.25" id="Line"></path>
                    <path d="M99.25,11.25 L105.75,11.25" id="Line"></path>
                    <path d="M123.25,6.25 L129.75,6.25" id="Line"></path>
                    <path d="M134.25,5.25 L140.75,5.25" id="Line"></path>
                    <path d="M113.25,7.25 L119.75,7.25" id="Line"></path>
                    <path d="M115.25,10.25 L121.75,10.25" id="Line"></path>
                    <path d="M129.25,9.25 L135.75,9.25" id="Line"></path>
                    <path d="M124.25,12.25 L130.75,12.25" id="Line"></path>
                    <path d="M78.25,12.25 L84.75,12.25" id="Line"></path>
                    <path d="M88.25,12.25 L94.75,12.25" id="Line"></path>
                    <path d="M67.25,13.25 L73.75,13.25" id="Line"></path>
                    <path d="M70.25,16.25 L76.75,16.25" id="Line"></path>
                    <path d="M83.25,15.25 L89.75,15.25" id="Line"></path>
                    <path d="M79.25,19.25 L85.75,19.25" id="Line"></path>
                    <path d="M201.25,6.25 L207.75,6.25" id="Line"></path>
                    <path d="M211.25,5.25 L217.75,5.25" id="Line"></path>
                    <path d="M190.25,7.25 L196.75,7.25" id="Line"></path>
                    <path d="M193.25,10.25 L199.75,10.25" id="Line"></path>
                    <path d="M206.25,9.25 L212.75,9.25" id="Line"></path>
                    <path d="M202.25,12.25 L208.75,12.25" id="Line"></path>
                    <path d="M226.25,7.25 L232.75,7.25" id="Line"></path>
                    <path d="M237.25,6.25 L243.75,6.25" id="Line"></path>
                    <path d="M216.25,8.25 L222.75,8.25" id="Line"></path>
                    <path d="M218.25,11.25 L224.75,11.25" id="Line"></path>
                    <path d="M232.25,10.25 L238.75,10.25" id="Line"></path>
                    <path d="M227.25,13.25 L233.75,13.25" id="Line"></path>
                    <path d="M181.25,13.25 L187.75,13.25" id="Line"></path>
                    <path d="M191.25,13.25 L197.75,13.25" id="Line"></path>
                    <path d="M170.25,14.25 L176.75,14.25" id="Line"></path>
                    <path d="M173.25,17.25 L179.75,17.25" id="Line"></path>
                    <path d="M186.25,16.25 L192.75,16.25" id="Line"></path>
                    <path d="M182.25,20.25 L188.75,20.25" id="Line"></path>
                </g>
                <g id="teepee" transform="translate(719.000000, 137.000000)" stroke-width="0.6">
                    <path d="M0,30 L15.5244906,5 L15.949469,5.64486385 L32,30" id="Teepee" stroke="#000000"></path>
                    <path d="M6,36 C6,36 7.7735219,25 11.0339417,25 C14.2943615,25 15,36 15,36" id="Line" stroke="#000000" transform="translate(10.500000, 30.500000) rotate(6.000000) translate(-10.500000, -30.500000) "></path>
                    <path d="M-0.105543174,30.3401322 C-0.105543174,30.3401322 -0.143123899,31.8907754 1.18985491,33.7860691 C2.52283356,35.6813628 5.38461161,35.897954 5.38461161,35.897954" id="Line" stroke="#000000"></path>
                    <path d="M14.3887666,36.8891811 C14.3887666,36.8891811 19.5062045,37.2511518 25.254035,35.6557738 C31.0018654,34.0603958 32.0311064,30.2383272 32.0311064,30.2383272" id="Line" stroke="#000000"></path>
                    <path d="M15.4396923,6.31930494 L12.7374105,0.997497559" id="Line" stroke="#6D5F5F"></path>
                    <path d="M18.1167391,6.94377706 L16.2923944,1.06105492" id="Line" stroke="#6D5F5F" transform="translate(17.292394, 4.061055) rotate(49.000000) translate(-17.292394, -4.061055) "></path>
                    <path d="M15.5,6.09225255 L16.0980457,0.129268944" id="Line" stroke="#6D5F5F"></path>
                </g>
            </g>
        </g>
    </g>
</svg>