<?xml version="1.0" encoding="UTF-8" standalone="no"?>
<svg width="403px" height="481px" viewBox="0 0 403 481" version="1.1" xmlns="http://www.w3.org/2000/svg" xmlns:xlink="http://www.w3.org/1999/xlink" xmlns:sketch="http://www.bohemiancoding.com/sketch/ns">
    <title>skilift</title>
    <description>Created with Sketch (http://www.bohemiancoding.com/sketch)</description>
    <defs></defs>
    <g id="Page-1" stroke="none" stroke-width="1" fill="none" fill-rule="evenodd" sketch:type="MSPage">
        <g id="bench-back" sketch:type="MSLayerGroup" transform="translate(5.000000, 264.000000)" stroke="#686666" stroke-width="2" fill="#D8D8D8">
            <path d="M2.37749276,88 L327,18.4374402 L324.622507,0 L0,68.1521594 L2.37749276,88 Z" id="Rectangle-1" sketch:type="MSShapeGroup"></path>
            <path d="M6.37749276,116 L331,44.4198584 L328.622507,26 L4,96.1686758 L6.37749276,116 Z" id="Rectangle-1" sketch:type="MSShapeGroup"></path>
            <path d="M11.3774928,144 L336,70.3860048 L333.622507,52 L9,124.202156 L11.3774928,144 Z" id="Rectangle-1" sketch:type="MSShapeGroup"></path>
        </g>
        <path d="M87.331235,461.633566 L403.950017,403.195058 L345.137242,377.140692 L25.1645861,429.099395 L87.331235,461.633566 Z" id="Rectangle-2" stroke="#616161" stroke-width="2" fill="#D8D8D8" sketch:type="MSShapeGroup" transform="translate(214.346884, 419.392783) rotate(-5.000000) translate(-214.346884, -419.392783) "></path>
        <path d="M124.484375,187.800781 C84.6898663,194.167854 55.4023437,198.937498 44.171875,207.574219 C32.9414063,216.21094 0.320311984,314.277332 0.3203125,326.945307 C0.320313478,339.613281 15.138135,427.727694 19.9921875,438.246094 C25.9722996,451.204588 25.050326,452.478042 44.171875,465.320312 C63.2934236,478.162584 88.2976227,479.108559 88.2976227,479.108559 C88.2976227,479.108559 100.413528,481.858077 102.660156,479.108559 C105.416132,475.735681 102.660156,465.320312 102.660156,465.320312 C102.660156,465.320312 76.1687741,462.46859 60.7695312,454.929687 C45.370288,447.390785 36.9960938,438.246088 36.9960938,438.246088 L15.1132812,326.945307 C15.1132812,326.945307 42.2851567,227.148436 51.5273437,219.574217 C54.5882327,217.065737 85.2559055,206.639629 124.484375,200.515623 C187.518401,190.675301 242.95866,184.417269 279.49881,180.105469 C279.647417,180.087933 333.543152,170.719434 342.171021,180.105469 C343.357392,181.396091 323.239563,264.054848 323.239563,264.054848 C323.239563,264.054848 336.108273,341.846723 338.173279,351.478799 C339.081551,355.715371 340.387801,363.054244 342.171021,366.006142 C348.33498,376.209811 386.41214,388.813179 386.41214,388.813179 C386.41214,388.813179 400.720032,392.09211 401.960632,386.898216 C403.201233,381.704323 396.302687,377.867908 383.556671,372.116951 C371.74356,366.786917 361.332908,360.9595 356.987823,358.972099 C346.792114,354.308678 336.940551,272.50396 336.940552,264.054848 C336.940552,255.605736 361.046378,182.410304 356.987823,173.808668 C348.555761,155.937884 301.546875,166.394531 301.546875,166.394531 C301.546875,166.394531 164.278884,181.433708 124.484375,187.800781 Z" id="Rectangle-1" stroke="#565454" stroke-width="3" fill="#EAEAEA" sketch:type="MSShapeGroup"></path>
        <path d="M132.535957,0.950439453 C132.535957,0.950439453 132.496601,10.101798 132.535957,13.7908211 C132.565492,16.5592158 144.034992,13.7032817 143.854321,15.6437407 C139.808036,59.101792 130.45119,144.903244 130.45119,144.903244 C130.45119,144.903244 125.187096,166.202515 134.520709,172.36319 C143.854321,178.523865 169.325575,182.523499 169.325575,182.523499 L208.683067,178.523865 L208.683064,165.846939 L166.232773,169.646439 C166.232773,169.646439 149.242878,166.635367 146.332377,162.337433 C142.450623,156.605253 154.125886,54.3604709 158.711287,15.6437402 C158.924021,13.8475269 175.233604,15.6437407 175.233604,15.6437407 L175.233604,0.950439453 L132.535957,0.950439453 Z" id="Rectangle-2" stroke="#565454" stroke-width="3" fill="#BFBFBF" sketch:type="MSShapeGroup"></path>
        <path d="M99.2819649,426.180368 L94.6086112,437.239629 L391.67752,437.239629 C391.67752,437.239629 397.972745,433.222862 398.533721,431.709999 C399.05305,430.309448 394.918435,428.499387 394.918435,428.499387 L99.2819649,426.180368 Z" id="Rectangle-3" fill="#616161" sketch:type="MSShapeGroup" transform="translate(246.978491, 431.999387) rotate(-16.000000) translate(-246.978491, -431.999387) "></path>
        <path d="M63.4311717,397.558203 C44.6866264,407.090443 19.4349406,437.722333 19.4349406,437.722333 L26.083608,442.480177 C26.083608,442.480177 49.5543641,413.719179 66.5097965,410.719435 C84.6282689,407.513928 121.559937,434.217467 121.559937,434.217467 C121.559937,434.217467 128.915913,431.898805 129.471295,431.254477 C132.515979,427.722178 132.360134,421.687588 132.360134,421.687588 C132.360134,421.687588 82.1757167,388.025964 63.4311717,397.558203 Z" id="Rectangle-4" stroke="#3F3D3D" stroke-width="2" fill="#EAEAEA" sketch:type="MSShapeGroup" transform="translate(76.106930, 419.161078) rotate(-308.000000) translate(-76.106930, -419.161078) "></path>
        <path d="M203.171125,362.897125 C184.42658,372.429365 162.437,403.87849 162.437,403.87849 C162.437,403.87849 163.562692,407.40211 164.908377,408.146316 C166.135075,408.824719 170.15415,408.146316 170.15415,408.146316 C170.15415,408.146316 192.71056,376.617223 209.665993,373.617479 C224.223401,371.041993 250.270064,392.92838 259.778996,399.879402 C262.10509,401.579775 263.041386,398.196781 263.041386,398.196781 L266.728046,389.837854 C266.728046,389.837854 221.91567,353.364886 203.171125,362.897125 Z" id="Rectangle-4" stroke="#3F3D3D" stroke-width="2" fill="#EAEAEA" sketch:type="MSShapeGroup" transform="translate(214.346884, 384.500000) rotate(-308.000000) translate(-214.346884, -384.500000) "></path>
        <path d="M352.695351,332.998238 C334.623433,336.23978 309.131567,364.477562 309.131567,364.477562 C309.131567,364.477562 304.527044,367.59923 307.360348,370.642138 C310.193652,373.685046 314.816984,370.642138 314.816984,370.642138 C314.816984,370.642138 337.2832,346.233207 354.238632,343.233464 C369.306946,340.567588 386.002619,354.470617 395.458851,360.209994 C397.373001,361.37177 399.773327,357.804772 399.773327,357.804772 L402.767872,350.018239 C402.767872,350.018239 370.767269,329.756697 352.695351,332.998238 Z" id="Rectangle-4" stroke="#3F3D3D" stroke-width="2" fill="#EAEAEA" sketch:type="MSShapeGroup" transform="translate(354.321691, 352.018361) rotate(-308.000000) translate(-354.321691, -352.018361) "></path>
        <path d="M163.047575,183.303103 L217.142752,177.060547 L203.753226,160.541605 L171.357033,164.033717 L163.047575,183.303103 Z" id="Rectangle-7" stroke="#575454" stroke-width="3" fill="#D8D8D8" sketch:type="MSShapeGroup"></path>
    </g>
</svg>