<?xml version="1.0" encoding="UTF-8" standalone="no"?>
<svg width="235px" height="571px" viewBox="0 0 235 571" version="1.1" xmlns="http://www.w3.org/2000/svg" xmlns:xlink="http://www.w3.org/1999/xlink" xmlns:sketch="http://www.bohemiancoding.com/sketch/ns">
    <title>skis</title>
    <description>Created with Sketch (http://www.bohemiancoding.com/sketch)</description>
    <defs></defs>
    <g id="Page-1" stroke="none" stroke-width="1" fill="none" fill-rule="evenodd" sketch:type="MSPage">
        <g id="Ski2" sketch:type="MSLayerGroup" transform="translate(5.000000, -3.000000)">
            <path d="M119.6057,15.6570535 C117.898286,8.93581079 118.587113,-13.19288 117.183111,-13.19288 C115.77911,-13.1928766 115.512037,7.81263842 114.036445,13.6213146 C109.308299,32.2336825 104.657806,45.1856289 101.490098,60.0702646 C100.632789,64.0986488 104.502053,105.16375 105.207111,162.097648 C105.696757,201.636884 103.0943,586.483663 103.0943,586.483663 L127.875381,586.483663 C127.875381,586.483663 130.458236,199.660087 130.543302,159.712322 C130.66216,103.895283 133.473,63.9363295 132.620922,60.0702646 C129.444757,45.6593022 124.102023,33.3568582 119.6057,15.6570535 Z" id="Rectangle-1" stroke="#4B4B4B" stroke-width="3" fill="#B2B0B0" sketch:type="MSShapeGroup" transform="translate(117.071900, 286.830139) rotate(-20.000000) translate(-117.071900, -286.830139) "></path>
            <path d="M119.029463,304.800881 L114.946866,330.930215 L144.466877,332.347907 L137.808116,304.800881 L119.029463,304.800881 Z" id="Rectangle-2" stroke="#403D3D" stroke-width="3" fill="#EDECEC" sketch:type="MSShapeGroup" transform="translate(129.815005, 318.669613) rotate(-19.000000) translate(-129.815005, -318.669613) "></path>
            <path d="M106.58613,283.141963 C107.67575,288.754509 107.541163,292.796653 109.224487,292.796653 C110.94583,292.796653 110.410526,288.959185 111.504669,283.141963 C112.51683,277.760617 115.224487,270.650194 115.224487,264.148034 C115.224487,259.605141 112.403186,256.232728 111.504669,251.807601 C109.726961,243.052516 109.224487,234.452968 109.224487,234.452968 C109.224487,234.452968 108.351792,242.450287 106.58613,251.807601 C105.822033,255.857019 103.224487,260.06109 103.224487,264.148034 C103.224487,270.80544 105.530778,277.705926 106.58613,283.141963 Z" id="Oval-1" stroke="#979797" stroke-width="2" fill="#FFFFFF" sketch:type="MSShapeGroup" transform="translate(109.224487, 263.648034) rotate(-19.000000) translate(-109.224487, -263.648034) "></path>
            <g id="skiboot" transform="translate(113.000000, 309.000000)" sketch:type="MSShapeGroup">
                <path d="M15.3709333,67.0842412 C15.6421451,69.8404376 14.1111975,68.1126199 18.0348802,79.3458237 C21.9585634,90.5790261 18.0348802,92.4802886 30.8709334,94.3229707 C37.857845,95.3259781 41.6510653,86.1799725 43.5816068,67.0842412 C44.0135394,62.8118288 46.3317205,45.9874646 46.3709323,39.9435902 C46.3959056,36.0943548 46.6153526,29.9658927 46.3709323,28.3172404 C45.0794332,19.6058803 45.7493122,21.8359508 43.5816076,16.9791801 C41.128677,11.4833569 43.7069865,2.89019538 30.8709334,2.89019538 C18.0348803,2.89019538 20.6988272,8.63761458 18.0348803,14.4626597 C15.3709334,20.287705 15.3709331,19.0575506 15.3709333,31.9527733 C15.3709336,44.847996 15.3709333,48.5272516 15.3709333,52.8878602 C15.3709333,57.9935609 14.9669543,62.9787965 15.3709333,67.0842412 Z" id="Oval-2" fill="#575757" transform="translate(30.870933, 48.635398) rotate(-21.000000) translate(-30.870933, -48.635398) "></path>
                <path d="M33.1977306,79.3745616 C35.9289747,83.9084523 38.5729286,88.901377 40.3487125,88.901377 C42.173032,88.901377 44.814402,87.6591091 46.3953843,84.268822 C47.6861111,81.5009644 48.1124502,76.9365892 48.1124502,73.4613479 C48.1124502,69.5798184 49.7282188,66.0558855 48.1124502,62.6796396 C46.5096156,59.3304212 39.9694252,55.8478911 38.3192291,55.8478911 C36.385478,55.8478911 31.6601357,58.0423248 29.4012857,61.0097549 C27.7893319,63.127363 28.2238388,65.4047999 28.2238388,68.6247008 C28.2238388,72.2131921 30.8323255,75.447967 33.1977306,79.3745616 Z" id="Oval-3" stroke="#979797" fill="#D8D8D8" transform="translate(38.400023, 72.695979) rotate(-16.000000) translate(-38.400023, -72.695979) "></path>
                <ellipse id="Oval-4" fill="#D8D8D8" transform="translate(13.054116, 23.083847) scale(1, -1) rotate(27.000000) translate(-13.054116, -23.083847) " cx="13.0541155" cy="23.0838472" rx="2.5" ry="1.5"></ellipse>
                <ellipse id="Oval-4" fill="#D8D8D8" transform="translate(23.554116, 18.083847) scale(1, -1) rotate(27.000000) translate(-23.554116, -18.083847) " cx="23.5541155" cy="18.0838472" rx="2.5" ry="1.5"></ellipse>
                <ellipse id="Oval-4" fill="#D8D8D8" transform="translate(13.554116, 30.083847) scale(1, -1) rotate(27.000000) translate(-13.554116, -30.083847) " cx="13.5541155" cy="30.0838472" rx="2.5" ry="1.5"></ellipse>
                <ellipse id="Oval-4" fill="#D8D8D8" transform="translate(30.900023, 24.583847) scale(1, -1) rotate(27.000000) translate(-30.900023, -24.583847) " cx="30.900023" cy="24.5838472" rx="2.5" ry="1.5"></ellipse>
                <ellipse id="Oval-4" fill="#D8D8D8" transform="translate(16.054116, 37.083847) scale(1, -1) rotate(27.000000) translate(-16.054116, -37.083847) " cx="16.0541155" cy="37.0838472" rx="2.5" ry="1.5"></ellipse>
                <ellipse id="Oval-4" fill="#D8D8D8" transform="translate(33.400023, 31.583847) scale(1, -1) rotate(27.000000) translate(-33.400023, -31.583847) " cx="33.400023" cy="31.5838472" rx="2.5" ry="1.5"></ellipse>
                <ellipse id="Oval-4" fill="#D8D8D8" transform="translate(18.554116, 45.083847) scale(1, -1) rotate(27.000000) translate(-18.554116, -45.083847) " cx="18.5541155" cy="45.0838472" rx="2.5" ry="1.5"></ellipse>
                <ellipse id="Oval-4" fill="#D8D8D8" transform="translate(35.900023, 38.583847) scale(1, -1) rotate(27.000000) translate(-35.900023, -38.583847) " cx="35.900023" cy="38.5838472" rx="2.5" ry="1.5"></ellipse>
                <ellipse id="Oval-4" fill="#D8D8D8" transform="translate(23.554116, 53.083847) scale(1, -1) rotate(27.000000) translate(-23.554116, -53.083847) " cx="23.5541155" cy="53.0838472" rx="2.5" ry="1.5"></ellipse>
                <ellipse id="Oval-4" fill="#D8D8D8" transform="translate(37.900023, 47.083847) scale(1, -1) rotate(27.000000) translate(-37.900023, -47.083847) " cx="37.900023" cy="47.0838472" rx="2.5" ry="1.5"></ellipse>
                <path d="M12.4868334,22.5774542 C12.4868355,22.5774536 24.2980307,17.5979467 24.2980307,17.5979467 C24.2980307,17.5979467 21.0602533,22.0785026 19.3088029,24.1424423 C17.7137769,26.0220487 14.2586013,29.4285849 14.2586013,29.4285849 C14.2586013,29.4285849 19.2605797,28.8166595 21.791045,28.0182395 C24.8451099,27.0546118 31.0121919,24.1424423 31.0121919,24.1424423 C31.0121919,24.1424423 28.0215044,28.816625 25.5996835,30.9732481 C23.2576136,33.0588531 16.7205193,36.8691267 16.7205193,36.8691267 C16.7205193,36.8691267 20.7508567,37.0344353 24.0753448,35.8511339 C26.2723514,35.0691425 33.2850035,30.9732485 33.2850035,30.9732485 C33.2850035,30.9732485 30.7779845,35.7161703 28.7579382,37.6750379 C26.119251,40.2338107 19.3088028,44.5261689 19.3088028,44.5261689 C19.3088028,44.5261689 24.7659686,43.8431367 27.843334,42.6015249 C30.4262003,41.5594264 36.2894978,37.6750382 36.2894978,37.6750382 C36.2894978,37.6750382 35.1356227,42.386349 33.2850034,44.5261693 C31.0642383,47.0939789 24.0753447,51.7979288 24.0753447,51.7979288 L38.1001474,47.2708628 C38.1001474,47.2708628 42.6575431,52.1465583 44.1153219,57.455216 C45.2795446,61.6948573 42.8163202,65.946446 42.8163202,70.9878126 C42.81632,78.5255681 46.3805763,82.9867503 48.3171938,88.8813405 C51.5929648,98.8519875 48.3171938,103.497323 48.3171938,103.497323" id="Path-1" stroke="#979797"></path>
                <path d="M13.3107923,22.3056195 C13.3107917,22.3056189 17.2874938,23.4344101 21.5226549,23.7874871 C26.1570016,24.1738434 31.0858125,23.7874871 31.0858125,23.7874871" id="Path-2" stroke="#979797"></path>
                <path d="M13.6513878,29.653367 C13.6513878,29.653367 20.1679378,32.0814793 23.6638485,32.3485676 C26.8429116,32.5914487 33.6763092,31.1832751 33.6763092,31.1832751" id="Path-3" stroke="#979797"></path>
                <path d="M15.4867849,36.6672938 C15.4867849,36.6672938 22.2313875,39.0473609 25.9590187,39.2879699 C29.2128766,39.4979981 36.4312526,38.0192055 36.4312526,38.0192055" id="Path-4" stroke="#979797"></path>
                <path d="M18.4111022,44.5656604 C18.4111022,44.5656604 24.040943,46.7010875 27.3577393,47.1315209 C30.6315378,47.5563744 38.1828866,47.1315209 38.1828866,47.1315209" id="Path-5" stroke="#979797"></path>
                <path d="M22.2725544,53 C22.2725544,53 20.6340267,63.1511963 21.0755117,67.0139843 C21.5606541,71.258755 25.8303571,77.8986864 26.8543333,83.1955368 C27.4954956,86.5121577 27.9758235,88.9907444 27.9985242,92.2245002 C28.0476436,99.221649 26.8543333,106 26.8543333,106" id="Path-6" stroke="#979797"></path>
            </g>
            <path d="M126,314 C127.10457,314 128,313.10457 128,312 C128,310.89543 127.10457,310 126,310 C124.89543,310 124,310.89543 124,312 C124,313.10457 124.89543,314 126,314 Z" id="Oval-27" fill="#666565" sketch:type="MSShapeGroup"></path>
        </g>
        <g id="Ski1" sketch:type="MSLayerGroup" transform="translate(120.548714, 280.283573) rotate(41.000000) translate(-120.548714, -280.283573) translate(3.548714, -6.716427)">
            <path d="M119.6057,15.6570535 C117.898286,8.93581079 118.587113,-13.19288 117.183111,-13.19288 C115.77911,-13.1928766 115.512037,7.81263842 114.036445,13.6213146 C109.308299,32.2336825 104.657806,45.1856289 101.490098,60.0702646 C100.632789,64.0986488 104.502053,105.16375 105.207111,162.097648 C105.696757,201.636884 103.0943,586.483663 103.0943,586.483663 L127.875381,586.483663 C127.875381,586.483663 130.458236,199.660087 130.543302,159.712322 C130.66216,103.895283 133.473,63.9363295 132.620922,60.0702646 C129.444757,45.6593022 124.102023,33.3568582 119.6057,15.6570535 Z" id="Rectangle-1" stroke="#4B4B4B" stroke-width="3" fill="#B2B0B0" sketch:type="MSShapeGroup" transform="translate(117.071900, 286.830139) rotate(-20.000000) translate(-117.071900, -286.830139) "></path>
            <path d="M118.948402,305.316474 L113.83834,331.868157 L142.566586,331.868157 L137.727054,305.316474 L118.948402,305.316474 Z" id="Rectangle-2" stroke="#403D3D" stroke-width="3" fill="#EDECEC" sketch:type="MSShapeGroup" transform="translate(128.233943, 318.685206) rotate(-19.000000) translate(-128.233943, -318.685206) "></path>
            <path d="M106.58613,283.141963 C107.67575,288.754509 107.541163,292.796653 109.224487,292.796653 C110.94583,292.796653 110.410526,288.959185 111.504669,283.141963 C112.51683,277.760617 115.224487,270.650194 115.224487,264.148034 C115.224487,259.605141 112.403186,256.232728 111.504669,251.807601 C109.726961,243.052516 109.224487,234.452968 109.224487,234.452968 C109.224487,234.452968 108.351792,242.450287 106.58613,251.807601 C105.822033,255.857019 103.224487,260.06109 103.224487,264.148034 C103.224487,270.80544 105.530778,277.705926 106.58613,283.141963 Z" id="Oval-1" stroke="#979797" stroke-width="2" fill="#FFFFFF" sketch:type="MSShapeGroup" transform="translate(109.224487, 263.648034) rotate(-19.000000) translate(-109.224487, -263.648034) "></path>
            <g id="skiboot" transform="translate(113.000000, 309.000000)" sketch:type="MSShapeGroup">
                <path d="M15.3709333,67.0842412 C15.6421451,69.8404376 14.1111975,68.1126199 18.0348802,79.3458237 C21.9585634,90.5790261 18.0348802,92.4802886 30.8709334,94.3229707 C37.857845,95.3259781 41.6510653,86.1799725 43.5816068,67.0842412 C44.0135394,62.8118288 46.3317205,45.9874646 46.3709323,39.9435902 C46.3959056,36.0943548 46.6153526,29.9658927 46.3709323,28.3172404 C45.0794332,19.6058803 45.7493122,21.8359508 43.5816076,16.9791801 C41.128677,11.4833569 43.7069865,2.89019538 30.8709334,2.89019538 C18.0348803,2.89019538 20.6988272,8.63761458 18.0348803,14.4626597 C15.3709334,20.287705 15.3709331,19.0575506 15.3709333,31.9527733 C15.3709336,44.847996 15.3709333,48.5272516 15.3709333,52.8878602 C15.3709333,57.9935609 14.9669543,62.9787965 15.3709333,67.0842412 Z" id="Oval-2" fill="#575757" transform="translate(30.870933, 48.635398) rotate(-21.000000) translate(-30.870933, -48.635398) "></path>
                <path d="M33.1977306,79.3745616 C35.9289747,83.9084523 38.5729286,88.901377 40.3487125,88.901377 C42.173032,88.901377 44.814402,87.6591091 46.3953843,84.268822 C47.6861111,81.5009644 48.1124502,76.9365892 48.1124502,73.4613479 C48.1124502,69.5798184 49.7282188,66.0558855 48.1124502,62.6796396 C46.5096156,59.3304212 39.9694252,55.8478911 38.3192291,55.8478911 C36.385478,55.8478911 31.6601357,58.0423248 29.4012857,61.0097549 C27.7893319,63.127363 28.2238388,65.4047999 28.2238388,68.6247008 C28.2238388,72.2131921 30.8323255,75.447967 33.1977306,79.3745616 Z" id="Oval-3" stroke="#979797" fill="#D8D8D8" transform="translate(38.400023, 72.695979) rotate(-16.000000) translate(-38.400023, -72.695979) "></path>
                <ellipse id="Oval-4" fill="#D8D8D8" transform="translate(13.054116, 23.083847) scale(1, -1) rotate(27.000000) translate(-13.054116, -23.083847) " cx="13.0541155" cy="23.0838472" rx="2.5" ry="1.5"></ellipse>
                <ellipse id="Oval-4" fill="#D8D8D8" transform="translate(23.554116, 18.083847) scale(1, -1) rotate(27.000000) translate(-23.554116, -18.083847) " cx="23.5541155" cy="18.0838472" rx="2.5" ry="1.5"></ellipse>
                <ellipse id="Oval-4" fill="#D8D8D8" transform="translate(13.554116, 30.083847) scale(1, -1) rotate(27.000000) translate(-13.554116, -30.083847) " cx="13.5541155" cy="30.0838472" rx="2.5" ry="1.5"></ellipse>
                <ellipse id="Oval-4" fill="#D8D8D8" transform="translate(30.900023, 24.583847) scale(1, -1) rotate(27.000000) translate(-30.900023, -24.583847) " cx="30.900023" cy="24.5838472" rx="2.5" ry="1.5"></ellipse>
                <ellipse id="Oval-4" fill="#D8D8D8" transform="translate(16.054116, 37.083847) scale(1, -1) rotate(27.000000) translate(-16.054116, -37.083847) " cx="16.0541155" cy="37.0838472" rx="2.5" ry="1.5"></ellipse>
                <ellipse id="Oval-4" fill="#D8D8D8" transform="translate(33.400023, 31.583847) scale(1, -1) rotate(27.000000) translate(-33.400023, -31.583847) " cx="33.400023" cy="31.5838472" rx="2.5" ry="1.5"></ellipse>
                <ellipse id="Oval-4" fill="#D8D8D8" transform="translate(18.554116, 45.083847) scale(1, -1) rotate(27.000000) translate(-18.554116, -45.083847) " cx="18.5541155" cy="45.0838472" rx="2.5" ry="1.5"></ellipse>
                <ellipse id="Oval-4" fill="#D8D8D8" transform="translate(35.900023, 38.583847) scale(1, -1) rotate(27.000000) translate(-35.900023, -38.583847) " cx="35.900023" cy="38.5838472" rx="2.5" ry="1.5"></ellipse>
                <ellipse id="Oval-4" fill="#D8D8D8" transform="translate(23.554116, 53.083847) scale(1, -1) rotate(27.000000) translate(-23.554116, -53.083847) " cx="23.5541155" cy="53.0838472" rx="2.5" ry="1.5"></ellipse>
                <ellipse id="Oval-4" fill="#D8D8D8" transform="translate(37.900023, 47.083847) scale(1, -1) rotate(27.000000) translate(-37.900023, -47.083847) " cx="37.900023" cy="47.0838472" rx="2.5" ry="1.5"></ellipse>
                <path d="M12.4868334,22.5774542 C12.4868355,22.5774536 24.2980307,17.5979467 24.2980307,17.5979467 C24.2980307,17.5979467 21.0602533,22.0785026 19.3088029,24.1424423 C17.7137769,26.0220487 14.2586013,29.4285849 14.2586013,29.4285849 C14.2586013,29.4285849 19.2605797,28.8166595 21.791045,28.0182395 C24.8451099,27.0546118 31.0121919,24.1424423 31.0121919,24.1424423 C31.0121919,24.1424423 28.0215044,28.816625 25.5996835,30.9732481 C23.2576136,33.0588531 16.7205193,36.8691267 16.7205193,36.8691267 C16.7205193,36.8691267 20.7508567,37.0344353 24.0753448,35.8511339 C26.2723514,35.0691425 33.2850035,30.9732485 33.2850035,30.9732485 C33.2850035,30.9732485 30.7779845,35.7161703 28.7579382,37.6750379 C26.119251,40.2338107 19.3088028,44.5261689 19.3088028,44.5261689 C19.3088028,44.5261689 24.7659686,43.8431367 27.843334,42.6015249 C30.4262003,41.5594264 36.2894978,37.6750382 36.2894978,37.6750382 C36.2894978,37.6750382 35.1356227,42.386349 33.2850034,44.5261693 C31.0642383,47.0939789 24.0753447,51.7979288 24.0753447,51.7979288 L38.1001474,47.2708628 C38.1001474,47.2708628 51.0675867,54.5020147 52.1057909,61.4029584 C53.1439952,68.3039022 56.1207826,73.3216672 61.5956514,76.3372083 C67.4760533,79.576116 68.3827698,78.5261027 70.3193872,84.420693" id="Path-1" stroke="#979797"></path>
                <path d="M13.3107923,22.3056195 C13.3107917,22.3056189 17.2874938,23.4344101 21.5226549,23.7874871 C26.1570016,24.1738434 31.0858125,23.7874871 31.0858125,23.7874871" id="Path-2" stroke="#979797"></path>
                <path d="M13.6513878,29.653367 C13.6513878,29.653367 20.1679378,32.0814793 23.6638485,32.3485676 C26.8429116,32.5914487 33.6763092,31.1832751 33.6763092,31.1832751" id="Path-3" stroke="#979797"></path>
                <path d="M15.4867849,36.6672938 C15.4867849,36.6672938 22.2313875,39.0473609 25.9590187,39.2879699 C29.2128766,39.4979981 36.4312526,38.0192055 36.4312526,38.0192055" id="Path-4" stroke="#979797"></path>
                <path d="M18.4111022,44.5656604 C18.4111022,44.5656604 24.040943,46.7010875 27.3577393,47.1315209 C30.6315378,47.5563744 38.1828866,47.1315209 38.1828866,47.1315209" id="Path-5" stroke="#979797"></path>
                <path d="M22.2725544,53 C22.2725544,53 32.9928803,63.1946872 33.4343653,67.0574751 C33.9195077,71.3022458 46.1107006,73.9627285 49.8895607,81.8490124 C53.668421,89.7352962 65.671557,94.3816998 65.6942578,97.6154556" id="Path-6" stroke="#979797"></path>
            </g>
            <path d="M125.187392,315.720943 C126.291961,315.720943 127.187392,314.825512 127.187392,313.720943 C127.187392,312.616373 126.291961,311.720943 125.187392,311.720943 C124.082822,311.720943 123.187392,312.616373 123.187392,313.720943 C123.187392,314.825512 124.082822,315.720943 125.187392,315.720943 Z" id="Oval-27" fill="#666565" sketch:type="MSShapeGroup"></path>
        </g>
    </g>
</svg>