<?xml version="1.0" encoding="UTF-8" standalone="no"?>
<svg width="228px" height="70px" viewBox="0 0 228 70" version="1.1" xmlns="http://www.w3.org/2000/svg" xmlns:xlink="http://www.w3.org/1999/xlink" xmlns:sketch="http://www.bohemiancoding.com/sketch/ns">
    <title>pocketknife</title>
    <description>Created with Sketch (http://www.bohemiancoding.com/sketch)</description>
    <defs></defs>
    <g id="Page-1" stroke="none" stroke-width="1" fill="none" fill-rule="evenodd" sketch:type="MSPage">
        <g id="PocketKnife" sketch:type="MSLayerGroup" transform="translate(114.500000, 33.500000) rotate(-90.000000) translate(-114.500000, -33.500000) translate(81.000000, -78.000000)">
            <path d="M2.89066297,196.011905 L2.63423402,196.011905 L0.0149668297,30.324465 L0.0149668297,30.324465 C0.00501395336,30.0100996 0,29.6944882 0,29.3777056 C0,13.152846 13.152846,0 29.3777056,0 C45.6025652,0 58.7554113,13.152846 58.7554113,29.3777056 C58.7554113,29.6929945 58.7504445,30.0071234 58.7405849,30.3200182 L58.0724602,72.7836809 L58.0724602,72.7836809 C60.3494792,100.098489 65.7301561,168.876847 63.5501534,184.378983 C62.5621914,191.404443 59.2079097,196.951044 55.3250474,201.170761 C54.9468229,203.031227 54.3770296,204.821207 53.6373805,206.518792 L58.5417483,211.42316 L58.5402542,211.424654 C58.5767373,211.45915 58.6128502,211.494262 58.6485798,211.529992 C60.7174288,213.598841 60.7174288,216.953107 58.6485798,219.021956 C56.5797307,221.090805 53.2254641,221.090805 51.156615,219.021956 C51.1208855,218.986227 51.085773,218.950114 51.0512776,218.913631 L51.0512776,218.913631 L51.0497835,218.915125 L47.4485356,215.313877 C42.7159653,219.771836 36.3625638,222.5 29.3777056,222.5 C14.8283602,222.5 3.01879231,210.662985 2.89066297,196.011905 Z M56.662971,162.365883 C56.8727486,161.801042 57.006113,161.493078 57.006113,161.493078 C57.006113,161.493078 59.522276,168.006596 59.3830156,175.98482 C59.2437551,183.963044 56.5018064,190.384781 56.5018064,190.384781 C56.5018064,190.384781 56.3982357,190.120704 56.2339371,189.633771 L56.662971,162.365883 L56.662971,162.365883 Z M57.0163894,217.389766 C58.050814,216.355342 58.050814,214.678208 57.0163894,213.643784 C55.9819649,212.609359 54.3048316,212.609359 53.2704071,213.643784 C52.2359826,214.678208 52.2359826,216.355342 53.2704071,217.389766 C54.3048316,218.424191 55.9819649,218.424191 57.0163894,217.389766 Z" id="Eyelet" stroke="#000000" sketch:type="MSShapeGroup"></path>
            <path d="M2.75699336,196.011905 L2.63423402,196.011905 L0.0149668297,30.324465 L0.0149668297,30.324465 C0.00501395336,30.0100996 0,29.6944882 0,29.3777056 C0,13.152846 13.152846,0 29.3777056,0 C45.6025652,0 58.7554113,13.152846 58.7554113,29.3777056 C58.7554113,29.6929945 58.7504445,30.0071234 58.7405849,30.3200182 L56.1335834,196.011905 L55.9984179,196.011905 C55.8696419,210.662985 44.0004758,222.5 29.3777056,222.5 C14.7549355,222.5 2.88576932,210.662985 2.75699336,196.011905 Z" id="Body" stroke="#000000" stroke-width="2" sketch:type="MSShapeGroup"></path>
            <path d="M5.72321429,193.603896 L5.70315699,193.603896 L3.384278,32.2134779 L3.384278,32.2134779 C3.3755891,31.9115204 3.37121212,31.608375 3.37121212,31.3041126 C3.37121212,15.6112156 15.0147152,2.88961039 29.3777056,2.88961039 C43.7406961,2.88961039 55.3841991,15.6112156 55.3841991,31.3041126 C55.3841991,31.6069404 55.3798633,31.9086618 55.3712559,32.2092067 L53.0632367,193.603896 L53.032197,193.603896 C53.032197,207.966887 42.4417211,219.61039 29.3777056,219.61039 C16.3136901,219.61039 5.72321429,207.966887 5.72321429,193.603896 Z" id="BodyInterior" stroke="#000000" sketch:type="MSShapeGroup"></path>
            <path d="M29.6185065,206.607143 C31.0814037,206.607143 32.267316,205.421231 32.267316,203.958333 C32.267316,202.495436 31.0814037,201.309524 29.6185065,201.309524 C28.1556093,201.309524 26.969697,202.495436 26.969697,203.958333 C26.969697,205.421231 28.1556093,206.607143 29.6185065,206.607143 Z" id="Rivet" stroke="#000000" sketch:type="MSShapeGroup"></path>
            <path d="M29.6185065,62.1266234 C36.6670111,62.1266234 42.3809524,56.4126821 42.3809524,49.3641775 C42.3809524,42.3156729 36.6670111,36.6017316 29.6185065,36.6017316 C22.5700019,36.6017316 16.8560606,42.3156729 16.8560606,49.3641775 C16.8560606,56.4126821 22.5700019,62.1266234 29.6185065,62.1266234 Z M29.8593074,58.7554113 C34.9129522,58.7554113 39.0097403,54.6586232 39.0097403,49.6049784 C39.0097403,44.5513336 34.9129522,40.4545455 29.8593074,40.4545455 C24.8056626,40.4545455 20.7088745,44.5513336 20.7088745,49.6049784 C20.7088745,54.6586232 24.8056626,58.7554113 29.8593074,58.7554113 Z" id="Oval-5" stroke="#1D1D1D" sketch:type="MSShapeGroup"></path>
        </g>
    </g>
</svg>