<?xml version="1.0" encoding="UTF-8" standalone="no"?>
<svg width="231px" height="361px" viewBox="0 0 231 361" version="1.1" xmlns="http://www.w3.org/2000/svg" xmlns:xlink="http://www.w3.org/1999/xlink" xmlns:sketch="http://www.bohemiancoding.com/sketch/ns">
    <title>sweatshirt</title>
    <description>Created with Sketch (http://www.bohemiancoding.com/sketch)</description>
    <defs>
        <path id="path-1" d="M43.9522038,300.103378 L46.8945312,322 L117.5,322 L188.247021,322 L191.850552,294.333282 C191.850552,294.333282 196.100362,227.302299 196.100362,196.891312 C196.100362,179.026515 150.16911,125.226443 150.16911,125.226443 C150.16911,125.226443 154.802963,137.421204 110.602114,137.421204 C69.2749808,137.421204 73.4912158,122.750534 73.4912158,122.750534 C73.4912158,122.750534 38.2732745,175.376486 38.2732745,196.891312 C38.2732745,232.092494 43.9522038,300.103378 43.9522038,300.103378 Z"></path>
        <path id="path-2" d="M85.5,134.5 C85.5,134.5 81.3143323,119.687044 78.3004101,102.499886 C75.0656559,84.0534132 72.9761532,62.8742679 72.6344995,54.405201 C71.9745168,38.0452381 77.0377754,28.6103699 81.0146608,23.3153353 C82.876861,20.835904 86.8021572,16.6402612 91.8917445,14.1509001 C97.6713999,11.3240207 104.749418,10.3152796 108.353239,9.63069153 C112.515741,8.83997543 121.962597,10.3988062 129.597153,14.1509001 C134.393133,16.5079419 137.965235,20.1442303 140.651405,23.3153353 C147.613598,31.5344134 147.661453,54.405201 147.661453,54.405201 C147.661453,54.405201 146.133157,73.6085691 144.96492,85.6344452 C143.539591,100.306835 138.5,134.5 138.5,134.5"></path>
    </defs>
    <g id="Page-1" stroke="none" stroke-width="1" fill="none" fill-rule="evenodd" sketch:type="MSPage">
        <path d="M-1.38101714,145.626167 C-6.13284042,152.584299 5.42033517,265.018095 16.3227821,320.590467 C19.5460347,337.020154 24.685849,339.609817 26.8674098,344.105906 C36.4279612,363.809736 29.5236026,363.125776 29.5236026,363.125776 L60.5059596,356.478742 C60.5059596,356.478742 56.127162,345.33749 55.7990542,339.47537 C55.6305488,336.464777 55.4486766,338.938336 60.5059581,328.281141 C65.5632396,317.623945 50.178238,113.933805 50.178238,113.933805 C50.178238,113.933805 6.2219734,134.49305 -1.38101714,145.626167 Z" id="Rectangle-1" stroke="#929292" stroke-width="3" fill="#D8D8D8" sketch:type="MSShapeGroup" transform="translate(29.221973, 238.433805) rotate(11.000000) translate(-29.221973, -238.433805) "></path>
        <path d="M226.16802,314.731182 C226.140038,331.076034 221.763636,334.515099 220.529363,339.230034 C215.120242,359.892942 221.51188,357.951412 221.51188,357.951412 L191.04757,357.352792 C191.04757,357.352792 193.136604,345.86056 192.370736,340.181816 C191.977412,337.265399 192.602929,339.601915 185.873916,330.331239 C179.144904,321.060563 156.294271,123 156.294271,123 C156.294271,123 201.557443,134.513897 210.776711,143.766447 C216.538698,149.549237 226.262668,259.445756 226.16802,314.731182 Z" id="Rectangle-1" stroke="#929292" stroke-width="3" fill="#D8D8D8" sketch:type="MSShapeGroup" transform="translate(191.294271, 240.500000) rotate(-3.000000) translate(-191.294271, -240.500000) "></path>
        <g id="Oval-1" stroke="#979797">
            <use stroke-width="1" fill="#FFFFFF" fill-rule="evenodd" sketch:type="MSShapeGroup" xlink:href="#path-1"></use>
            <use stroke-width="2" fill="none" xlink:href="#path-1"></use>
        </g>
        <path d="M89.3940401,135.254598 C89.3940401,135.254598 98.4443832,138.000003 110.5,138 C122.555617,137.999997 135.249468,135.254598 135.249468,135.254598 L142.201559,74.5000017 C142.201559,74.5000017 144.685031,35.8131921 139.132204,27.9421329 C133.579378,20.0710744 120.801042,14.2706506 110.499999,14.2706506 C100.177854,14.2706506 86.2949987,20.1665985 82.3748295,27.9421329 C78.4546605,35.7176676 76.5647629,44.3366398 78.4546605,74.5000017 C80.3445586,104.663363 89.3940401,135.254598 89.3940401,135.254598 Z" id="Oval-2" stroke="#6F6F6F" stroke-width="3" fill="#A6A6A6" sketch:type="MSShapeGroup"></path>
        <path d="M73.4889657,125.552419 C73.4889657,125.552419 65.1691062,83.1761161 65.169107,59.946564 C65.1691083,36.7170118 64.5396747,28.5149496 75.4999999,14.069987 C86.4603248,-0.374976048 109.62336,1.00596601 109.62336,1.00596601 C109.62336,1.00596601 134.774731,0.381034286 145.43947,14.0699866 C156.104209,27.7589393 153.894647,59.946564 153.894647,59.946564 L149.500002,124.301876" id="Line" stroke="#929292" stroke-width="3" stroke-linecap="square" sketch:type="MSShapeGroup"></path>
        <path d="M73.4474373,126.10399 C73.4474373,126.10399 62.3931038,143.617019 57.6839943,152.896734 C51.0597704,165.950352 38.5,194.5 38.5,194.5" id="Line" stroke="#979797" stroke-linecap="square" stroke-dasharray="2,5" sketch:type="MSShapeGroup"></path>
        <g id="Line" stroke="#979797" stroke-linecap="square" stroke-dasharray="2,5">
            <use sketch:type="MSShapeGroup" xlink:href="#path-2"></use>
            <use xlink:href="#path-2"></use>
        </g>
        <path d="M149.5,128.5 C149.5,128.5 152.385056,131.874296 155.456743,135.730105 C161.055666,142.758285 169.088244,153.183031 174.232977,160.403671 C181.420058,170.490749 194.962971,192.307343 194.962971,192.307343" id="Line" stroke="#979797" stroke-linecap="square" stroke-dasharray="2,5" sketch:type="MSShapeGroup"></path>
        <path d="M78.6979079,128 C78.6979079,128 76.2726747,142.121762 76.2283853,145.992832 C76.1761897,150.554945 80.8943111,156.258972 81,162.135612 C81.0926922,167.289596 81.9899491,172.707645 81.0000001,175.969902 C80.0100511,179.232159 76.2283853,186.846134 76.2283853,186.846134 C76.2283853,186.846134 74.2437317,188.770637 75.6710294,189.751991 C77.0983272,190.733345 78,188.414249 78,188.414249 C78,188.414249 82.6600505,178.771577 83.2569052,175.969902 C83.8537599,173.168228 83.4822309,170.87003 83.2569053,163.737999 C83.1427417,160.124478 78,148.86897 78,145.992832 C78,142.267965 81,128 81,128 L78.6979079,128 Z" id="Oval-3" fill="#6F6D6D" sketch:type="MSShapeGroup"></path>
        <path d="M80,130 C81.1045696,130 82,129.10457 82,128 C82,126.89543 81.1045696,126 80,126 C78.8954304,126 78,126.89543 78,128 C78,129.10457 78.8954304,130 80,130 Z" id="Path" fill="#6F6D6D" sketch:type="MSShapeGroup"></path>
        <path d="M144,130 C145.10457,130 146,129.10457 146,128 C146,126.89543 145.10457,126 144,126 C142.89543,126 142,126.89543 142,128 C142,129.10457 142.89543,130 144,130 Z" id="Path" fill="#6F6D6D" sketch:type="MSShapeGroup"></path>
        <path d="M143,129 C143,129 145,143.234645 145,149.791359 C145,152.333175 140.191821,161.201477 140.191818,166.965233 C140.191807,185.220726 142.011348,192.002045 142.011348,192.002045 C142.011348,192.002045 144.326958,193.013016 145,191.085884 C145.673042,189.158752 144.17123,187.731106 144.17123,187.731106 C144.17123,187.731106 141.605664,184.038214 142.011348,167.913483 C142.171572,161.545041 146.939469,155.329035 146.939469,149.791359 C146.939469,145.683623 145,129 145,129 L143,129 Z" id="Rectangle-3" fill="#6F6D6D" sketch:type="MSShapeGroup"></path>
        <path d="M89.7382536,245.98659 C89.7382536,245.98659 89.9092476,262.534274 85.8522139,265.182229 C81.9358799,267.738352 68.7825842,272.993295 68.7825842,272.993295 L68.7825842,300 L166,300 L165.999999,272.993295 C165.999999,272.993295 152.779651,267.887936 149.479461,265.182229 C146.43216,262.683858 145.773086,245.98659 145.773086,245.98659 L89.7382536,245.98659 Z" id="Rectangle-4" stroke="#676767" stroke-width="2" sketch:type="MSShapeGroup"></path>
        <path d="M44.0021881,301 C44.0021881,301 45.656414,307.560376 46,311 C46.3223508,314.227043 46,322.22546 46,322.22546 L188.44097,322.22546 C188.44097,322.22546 190.61605,314.73403 190.616049,311 C190.616048,308.067364 190.616049,301 190.616049,301 L44.0021881,301 Z" id="Rectangle-6" stroke="#424242" fill="#D8D8D8" sketch:type="MSShapeGroup"></path>
    </g>
</svg>